<?xml version="1.0"?>
<!DOCTYPE svg PUBLIC "-//W3C//DTD SVG 1.1//EN" "http://www.w3.org/Graphics/SVG/1.1/DTD/svg11.dtd">
<svg width="400" height="400" version="1.1" xmlns="http://www.w3.org/2000/svg">
<circle cx="0.500504" cy="225.434" r="1" fill="rgb(0,0,0)"/>
<circle cx="77.3217" cy="323.496" r="1" fill="rgb(0,0,0)"/>
<circle cx="234.004" cy="191.949" r="1" fill="rgb(0,0,0)"/>
<circle cx="140.117" cy="358.385" r="1" fill="rgb(0,0,0)"/>
<circle cx="329.136" cy="298.642" r="1" fill="rgb(0,0,0)"/>
<circle cx="69.6432" cy="343.577" r="1" fill="rgb(0,0,0)"/>
<circle cx="284.201" cy="205.414" r="1" fill="rgb(0,0,0)"/>
<circle cx="121.598" cy="5.99384" r="1" fill="rgb(0,0,0)"/>
<circle cx="36.5612" cy="145.781" r="1" fill="rgb(0,0,0)"/>
<circle cx="58.9251" cy="66.3595" r="1" fill="rgb(0,0,0)"/>
<circle cx="395.41" cy="178.277" r="1" fill="rgb(0,0,0)"/>
<circle cx="47.6333" cy="1.86773" r="1" fill="rgb(0,0,0)"/>
<circle cx="3.56456" cy="151.152" r="1" fill="rgb(0,0,0)"/>
<circle cx="212.665" cy="228.474" r="1" fill="rgb(0,0,0)"/>
<circle cx="240.706" cy="242.866" r="1" fill="rgb(0,0,0)"/>
<circle cx="66.4937" cy="265.218" r="1" fill="rgb(0,0,0)"/>
<circle cx="180.316" cy="140.849" r="1" fill="rgb(0,0,0)"/>
<circle cx="22.8156" cy="243.074" r="1" fill="rgb(0,0,0)"/>
<circle cx="313.327" cy="321.043" r="1" fill="rgb(0,0,0)"/>
<circle cx="207.953" cy="120.78" r="1" fill="rgb(0,0,0)"/>
<circle cx="350.389" cy="290.671" r="1" fill="rgb(0,0,0)"/>
<circle cx="382.36" cy="370.287" r="1" fill="rgb(0,0,0)"/>
<circle cx="215.741" cy="56.9353" r="1" fill="rgb(0,0,0)"/>
<circle cx="184.832" cy="94.1313" r="1" fill="rgb(0,0,0)"/>
<circle cx="344.896" cy="83.8404" r="1" fill="rgb(0,0,0)"/>
<circle cx="311.863" cy="337.461" r="1" fill="rgb(0,0,0)"/>
<circle cx="398.718" cy="399.878" r="1" fill="rgb(0,0,0)"/>
<circle cx="244.6" cy="156.975" r="1" fill="rgb(0,0,0)"/>
<circle cx="106.485" cy="118.912" r="1" fill="rgb(0,0,0)"/>
<circle cx="336.058" cy="9.49736" r="1" fill="rgb(0,0,0)"/>
<circle cx="150.346" cy="37.0495" r="1" fill="rgb(0,0,0)"/>
<circle cx="270.882" cy="22.486" r="1" fill="rgb(0,0,0)"/>
<circle cx="3.51573" cy="367.516" r="1" fill="rgb(0,0,0)"/>
<circle cx="110.355" cy="109.159" r="1" fill="rgb(0,0,0)"/>
<circle cx="235.163" cy="276.473" r="1" fill="rgb(0,0,0)"/>
<circle cx="335.044" cy="290.597" r="1" fill="rgb(0,0,0)"/>
<circle cx="193.976" cy="82.1436" r="1" fill="rgb(0,0,0)"/>
<circle cx="297.494" cy="187.384" r="1" fill="rgb(0,0,0)"/>
<circle cx="183.184" cy="379.662" r="1" fill="rgb(0,0,0)"/>
<circle cx="297.775" cy="43.3119" r="1" fill="rgb(0,0,0)"/>
<circle cx="239.619" cy="154.094" r="1" fill="rgb(0,0,0)"/>
<circle cx="294.003" cy="243.587" r="1" fill="rgb(0,0,0)"/>
<circle cx="228.962" cy="144.536" r="1" fill="rgb(0,0,0)"/>
<circle cx="60.622" cy="90.0418" r="1" fill="rgb(0,0,0)"/>
<circle cx="170.061" cy="321.152" r="1" fill="rgb(0,0,0)"/>
<circle cx="206.842" cy="395.996" r="1" fill="rgb(0,0,0)"/>
<circle cx="300.62" cy="138.224" r="1" fill="rgb(0,0,0)"/>
<circle cx="67.5924" cy="262.923" r="1" fill="rgb(0,0,0)"/>
<circle cx="196.759" cy="25.4158" r="1" fill="rgb(0,0,0)"/>
<circle cx="279.904" cy="201.923" r="1" fill="rgb(0,0,0)"/>
<circle cx="58.9984" cy="379.833" r="1" fill="rgb(0,0,0)"/>
<circle cx="56.6301" cy="362.047" r="1" fill="rgb(0,0,0)"/>
<circle cx="277.157" cy="121.22" r="1" fill="rgb(0,0,0)"/>
<circle cx="170.623" cy="28.1503" r="1" fill="rgb(0,0,0)"/>
<circle cx="386.645" cy="273.275" r="1" fill="rgb(0,0,0)"/>
<circle cx="61.2934" cy="350.902" r="1" fill="rgb(0,0,0)"/>
<circle cx="328.672" cy="232.82" r="1" fill="rgb(0,0,0)"/>
<circle cx="76.5404" cy="71.157" r="1" fill="rgb(0,0,0)"/>
<circle cx="326.878" cy="190.106" r="1" fill="rgb(0,0,0)"/>
<circle cx="62.2211" cy="201.569" r="1" fill="rgb(0,0,0)"/>
<circle cx="292.807" cy="162.236" r="1" fill="rgb(0,0,0)"/>
<circle cx="111.832" cy="227.497" r="1" fill="rgb(0,0,0)"/>
<circle cx="272.897" cy="302.341" r="1" fill="rgb(0,0,0)"/>
<circle cx="288.766" cy="190.118" r="1" fill="rgb(0,0,0)"/>
<circle cx="49.208" cy="147.124" r="1" fill="rgb(0,0,0)"/>
<circle cx="333.872" cy="14.0385" r="1" fill="rgb(0,0,0)"/>
<circle cx="206.806" cy="265.194" r="1" fill="rgb(0,0,0)"/>
<circle cx="170.489" cy="41.8714" r="1" fill="rgb(0,0,0)"/>
<circle cx="379.736" cy="368.554" r="1" fill="rgb(0,0,0)"/>
<circle cx="219.819" cy="138.395" r="1" fill="rgb(0,0,0)"/>
<circle cx="188.69" cy="149.992" r="1" fill="rgb(0,0,0)"/>
<circle cx="338.792" cy="126.749" r="1" fill="rgb(0,0,0)"/>
<circle cx="182.44" cy="108.756" r="1" fill="rgb(0,0,0)"/>
<circle cx="393.188" cy="119.12" r="1" fill="rgb(0,0,0)"/>
<circle cx="295.676" cy="226.911" r="1" fill="rgb(0,0,0)"/>
<circle cx="78.3959" cy="304.526" r="1" fill="rgb(0,0,0)"/>
<circle cx="335.777" cy="159.062" r="1" fill="rgb(0,0,0)"/>
<circle cx="200.36" cy="356.066" r="1" fill="rgb(0,0,0)"/>
<circle cx="10.9867" cy="397.852" r="1" fill="rgb(0,0,0)"/>
<circle cx="229.035" cy="20.2033" r="1" fill="rgb(0,0,0)"/>
<circle cx="212.531" cy="77.6269" r="1" fill="rgb(0,0,0)"/>
<circle cx="337.217" cy="250.703" r="1" fill="rgb(0,0,0)"/>
<circle cx="263.045" cy="79.1406" r="1" fill="rgb(0,0,0)"/>
<circle cx="336.863" cy="49.3301" r="1" fill="rgb(0,0,0)"/>
<circle cx="43.9711" cy="297.25" r="1" fill="rgb(0,0,0)"/>
<circle cx="125.626" cy="376.428" r="1" fill="rgb(0,0,0)"/>
<circle cx="114.432" cy="134.526" r="1" fill="rgb(0,0,0)"/>
<circle cx="56.1052" cy="293.234" r="1" fill="rgb(0,0,0)"/>
<circle cx="333.848" cy="283.2" r="1" fill="rgb(0,0,0)"/>
<circle cx="240.095" cy="298.886" r="1" fill="rgb(0,0,0)"/>
<circle cx="101.09" cy="57.7898" r="1" fill="rgb(0,0,0)"/>
<circle cx="0.646992" cy="24.4026" r="1" fill="rgb(0,0,0)"/>
<circle cx="322.495" cy="341.05" r="1" fill="rgb(0,0,0)"/>
<circle cx="84.2311" cy="46.2416" r="1" fill="rgb(0,0,0)"/>
<circle cx="221.284" cy="5.70086" r="1" fill="rgb(0,0,0)"/>
<circle cx="45.5092" cy="181.805" r="1" fill="rgb(0,0,0)"/>
<circle cx="300.888" cy="274.459" r="1" fill="rgb(0,0,0)"/>
<circle cx="217.377" cy="29.5541" r="1" fill="rgb(0,0,0)"/>
<circle cx="174.688" cy="80.7764" r="1" fill="rgb(0,0,0)"/>
<circle cx="278.487" cy="116.141" r="1" fill="rgb(0,0,0)"/>
</svg>
